<?xml version="1.0" encoding="UTF-8"?>
<svg xmlns="http://www.w3.org/2000/svg" xmlns:xlink="http://www.w3.org/1999/xlink" width="16px" height="16px" viewBox="0 0 16 16" version="1.1">
<g id="surface1">
<path style=" stroke:none;fill-rule:nonzero;fill:rgb(100%,0%,0%);fill-opacity:1;" d="M 8.578125 3.988281 C 8.070312 4.058594 7.699219 4.382812 7.566406 4.863281 C 7.550781 4.921875 7.542969 4.992188 7.542969 5.132812 L 7.542969 5.320312 L 7.609375 5.554688 C 7.691406 5.847656 7.742188 6.074219 7.78125 6.3125 L 7.8125 6.492188 L 7.738281 6.601562 C 7.695312 6.664062 7.664062 6.726562 7.664062 6.742188 C 7.664062 6.78125 7.675781 6.796875 7.773438 6.855469 C 7.851562 6.90625 7.863281 6.925781 7.863281 7.019531 C 7.863281 7.058594 7.851562 7.078125 7.773438 7.152344 L 7.683594 7.234375 L 7.71875 7.277344 C 7.738281 7.296875 7.777344 7.328125 7.804688 7.339844 L 7.855469 7.363281 L 7.796875 7.363281 C 7.648438 7.363281 7.394531 7.4375 7.148438 7.554688 C 7.082031 7.585938 6.847656 7.703125 6.628906 7.820312 C 5.898438 8.203125 5.546875 8.363281 4.453125 8.8125 C 3.246094 9.308594 2.949219 9.441406 2.351562 9.738281 C 1.226562 10.300781 0.386719 10.859375 0.125 11.214844 C 0.0390625 11.335938 0.0078125 11.417969 0.0078125 11.519531 C 0.0078125 11.59375 0.0117188 11.617188 0.0429688 11.664062 C 0.164062 11.875 0.496094 11.972656 1.207031 12.015625 C 1.730469 12.042969 4.210938 12.011719 7.125 11.9375 C 9.960938 11.863281 11.664062 11.84375 13.144531 11.863281 C 14.40625 11.878906 14.664062 11.871094 15.082031 11.8125 C 15.457031 11.757812 15.695312 11.675781 15.847656 11.558594 C 16.164062 11.300781 15.980469 10.953125 15.3125 10.554688 C 15.019531 10.378906 14.386719 10.078125 13.710938 9.796875 C 13.433594 9.679688 12.78125 9.421875 11.929688 9.085938 C 10.621094 8.574219 10.140625 8.363281 9.15625 7.875 C 8.375 7.488281 8.242188 7.429688 8.023438 7.382812 L 7.988281 7.375 L 7.996094 7.261719 L 8.003906 7.144531 L 8.054688 7.101562 C 8.179688 6.992188 8.183594 6.972656 8.070312 6.894531 L 7.992188 6.839844 L 7.980469 6.714844 L 7.964844 6.59375 L 8.011719 6.527344 C 8.054688 6.460938 8.054688 6.460938 8.035156 6.417969 C 8.019531 6.386719 8.003906 6.371094 7.976562 6.367188 C 7.949219 6.363281 7.933594 6.351562 7.929688 6.332031 C 7.925781 6.320312 7.910156 6.230469 7.890625 6.136719 C 7.851562 5.914062 7.800781 5.710938 7.734375 5.488281 C 7.6875 5.316406 7.683594 5.296875 7.683594 5.136719 C 7.683594 4.933594 7.707031 4.828125 7.796875 4.65625 C 7.84375 4.570312 7.878906 4.519531 7.96875 4.429688 C 8.195312 4.203125 8.429688 4.113281 8.816406 4.113281 C 9.136719 4.113281 9.394531 4.164062 9.613281 4.269531 C 9.710938 4.320312 9.75 4.351562 9.839844 4.4375 C 9.925781 4.527344 9.957031 4.5625 10.003906 4.664062 C 10.074219 4.800781 10.121094 4.984375 10.132812 5.140625 L 10.140625 5.25 L 10.289062 5.25 L 10.28125 5.203125 C 10.277344 5.175781 10.273438 5.121094 10.269531 5.082031 C 10.257812 4.976562 10.214844 4.800781 10.179688 4.710938 C 10.027344 4.320312 9.722656 4.097656 9.226562 4.011719 C 9.0625 3.984375 8.703125 3.96875 8.578125 3.988281 Z M 7.707031 7.535156 C 7.710938 7.550781 7.730469 7.578125 7.75 7.597656 C 7.8125 7.667969 7.898438 7.644531 7.941406 7.554688 C 7.964844 7.507812 7.96875 7.507812 8.066406 7.53125 C 8.214844 7.570312 8.363281 7.636719 9.039062 7.96875 C 10.203125 8.542969 10.503906 8.671875 12.707031 9.539062 C 14.492188 10.238281 15.332031 10.652344 15.683594 10.992188 C 15.832031 11.140625 15.882812 11.253906 15.839844 11.351562 C 15.761719 11.53125 15.386719 11.65625 14.78125 11.714844 C 14.660156 11.726562 14.03125 11.730469 12.386719 11.730469 C 11.066406 11.730469 9.898438 11.738281 9.523438 11.746094 C 9.175781 11.757812 8.53125 11.769531 8.085938 11.78125 C 7.644531 11.792969 7.054688 11.804688 6.78125 11.8125 C 4.683594 11.863281 3.324219 11.886719 2.21875 11.886719 C 1.140625 11.886719 0.921875 11.878906 0.59375 11.808594 C 0.339844 11.757812 0.179688 11.667969 0.148438 11.5625 C 0.0898438 11.335938 0.511719 10.945312 1.398438 10.410156 C 2.140625 9.960938 2.894531 9.601562 4.105469 9.105469 C 5.609375 8.488281 5.652344 8.46875 7 7.785156 C 7.339844 7.613281 7.582031 7.515625 7.664062 7.511719 C 7.6875 7.511719 7.703125 7.519531 7.707031 7.535156 Z M 7.707031 7.535156 "/>
</g>
</svg>
