<?xml version="1.0" standalone="no"?>
<!DOCTYPE svg PUBLIC "-//W3C//DTD SVG 20010904//EN"
 "http://www.w3.org/TR/2001/REC-SVG-20010904/DTD/svg10.dtd">
<svg version="1.0" xmlns="http://www.w3.org/2000/svg"
 width="1280.000000pt" height="644.000000pt" viewBox="0 0 1280.000000 644.000000"
 preserveAspectRatio="xMidYMid meet" style="background-color:white">
<metadata>
Created by potrace 1.15, written by Peter Selinger 2001-2017
</metadata>
<g transform="translate(0.000000,644.000000) scale(0.100000,-0.100000)"
fill="#000000" stroke="none">
<path d="M6862 6430 c-406 -58 -703 -315 -809 -701 -13 -48 -18 -102 -18 -214
l0 -150 53 -190 c64 -232 105 -414 137 -604 l25 -144 -60 -89 c-33 -49 -60
-99 -60 -113 0 -29 11 -41 88 -90 63 -41 72 -57 72 -132 0 -31 -9 -44 -72
-104 l-72 -68 29 -32 c17 -17 48 -40 70 -50 l40 -19 -46 0 c-119 0 -323 -60
-521 -153 -53 -25 -239 -121 -415 -213 -584 -307 -865 -435 -1741 -795 -964
-396 -1202 -501 -1682 -740 -898 -449 -1571 -896 -1779 -1182 -70 -96 -96
-161 -96 -242 0 -59 5 -78 28 -117 98 -167 364 -247 932 -279 418 -24 2404 2
4735 61 2268 58 3631 75 4817 60 1008 -13 1213 -8 1548 41 300 43 492 107 612
203 255 204 107 483 -427 803 -234 140 -740 379 -1280 605 -222 93 -745 301
-1425 568 -1047 411 -1434 579 -2220 970 -625 310 -730 356 -906 394 l-27 6 6
92 5 93 41 35 c100 86 102 101 13 164 l-64 45 -10 98 -10 98 35 53 c35 53 35
53 19 88 -12 25 -25 36 -47 41 -20 3 -32 13 -35 27 -3 11 -17 82 -31 156 -33
178 -73 342 -125 520 -40 138 -42 151 -42 280 0 164 19 247 90 384 38 71 67
110 138 182 181 183 370 254 677 254 258 0 464 -41 638 -127 78 -39 110 -63
181 -133 71 -71 94 -101 133 -180 54 -111 94 -258 103 -382 l6 -88 59 0 60 0
-6 38 c-3 20 -8 64 -11 97 -9 83 -42 224 -71 296 -122 313 -365 491 -764 560
-130 23 -417 33 -518 19z m-697 -2839 c3 -11 19 -34 35 -50 49 -54 120 -38
154 34 19 40 21 40 99 20 118 -31 237 -84 777 -350 932 -459 1174 -563 2935
-1255 1430 -562 2101 -891 2381 -1165 121 -119 161 -209 126 -287 -62 -142
-362 -244 -847 -289 -96 -9 -601 -13 -1915 -14 -1058 0 -1991 -6 -2290 -13
-278 -7 -795 -19 -1150 -27 -355 -8 -825 -19 -1045 -25 -1677 -42 -2766 -60
-3650 -60 -864 0 -1036 8 -1300 62 -202 41 -332 113 -355 197 -49 183 290 496
1000 923 594 358 1196 648 2165 1045 1204 493 1236 508 2315 1055 273 138 466
217 532 218 18 0 29 -6 33 -19z"/>
</g>
</svg>
