<svg  width="1920" height="929" xmlns="http://www.w3.org/2000/svg" version="1.1"><rect width="1920" height="929" fill="rgb(242,245,250)"></rect><path d="M 969 435 l 1920 0 A 1920 1920 0 0 1 2823.5775864750112 931.9325665968398 z" fill="rgb(200,0,62)" filter="url(#grayscale)" /><path d="M 969 435 l 1662.7687752661222 959.9999999999999 A 1920 1920 0 0 1 2326.6450198781713 1792.645019878171 z" fill="rgb(200,0,62)" filter="url(#grayscale)" /><path d="M 969 435 l 960.0000000000002 1662.768775266122 A 1920 1920 0 0 1 1465.93256659684 2289.5775864750112 z" fill="rgb(200,0,62)" filter="url(#grayscale)" /><path d="M 969 435 l 1.1756609271814592e-13 1920 A 1920 1920 0 0 1 472.0674334031604 2289.5775864750112 z" fill="rgb(200,0,62)" filter="url(#grayscale)" /><path d="M 969 435 l -959.9999999999995 1662.7687752661222 A 1920 1920 0 0 1 -388.64501987817107 1792.6450198781713 z" fill="rgb(200,0,62)" filter="url(#grayscale)" /><path d="M 969 435 l -1662.7687752661222 959.9999999999999 A 1920 1920 0 0 1 -885.577586475011 931.9325665968404 z" fill="rgb(200,0,62)" filter="url(#grayscale)" /><path d="M 969 435 l -1920 2.3513218543629184e-13 A 1920 1920 0 0 1 -885.5775864750112 -61.93256659683993 z" fill="rgb(200,0,62)" filter="url(#grayscale)" /><path d="M 969 435 l -1662.7687752661225 -959.9999999999994 A 1920 1920 0 0 1 -388.645019878172 -922.6450198781704 z" fill="rgb(200,0,62)" filter="url(#grayscale)" /><path d="M 969 435 l -960.0000000000009 -1662.7687752661218 A 1920 1920 0 0 1 472.0674334031604 -1419.5775864750112 z" fill="rgb(200,0,62)" filter="url(#grayscale)" /><path d="M 969 435 l -3.526982781544377e-13 -1920 A 1920 1920 0 0 1 1465.932566596839 -1419.5775864750115 z" fill="rgb(200,0,62)" filter="url(#grayscale)" /><path d="M 969 435 l 960.0000000000002 -1662.768775266122 A 1920 1920 0 0 1 2326.645019878171 -922.6450198781715 z" fill="rgb(200,0,62)" filter="url(#grayscale)" /><path d="M 969 435 l 1662.7687752661218 -960.0000000000009 A 1920 1920 0 0 1 2823.577586475011 -61.93256659684141 z" fill="rgb(200,0,62)" filter="url(#grayscale)" />
<filter id="grayscale">
 <feColorMatrix type="matrix" values="0.3333 0.3333 0.3333 0 0 0.3333 0.3333 0.3333 0 0 0.3333 0.3333 0.3333 0 0 0 0 0 1 0"/>
</filter>
   </svg>
